<svg xmlns="http://www.w3.org/2000/svg" viewBox="0 0 247.23 210.26"><g id="Layer_2" data-name="Layer 2"><g id="Layer_1-2" data-name="Layer 1"><path d="M221,90.54a15.2,15.2,0,0,1-10.92-4q-4.2-4-3.78-10.71l2.1-31.71a36.64,36.64,0,0,0-2-15.64,32.3,32.3,0,0,0-7.67-12A33.67,33.67,0,0,0,186.44,9a46.2,46.2,0,0,0-15.85-2.62h-6.3a11.55,11.55,0,0,0-11.55,11.55v6.29a11.55,11.55,0,0,0,11.55,11.55h0q6.09,0,9.55,2.94c2.31,2,3.33,5.18,3,9.66L174.78,80a21,21,0,0,0,1.68,10.39,19.64,19.64,0,0,0,6,7.46,30.09,30.09,0,0,0,9.24,4.62,43,43,0,0,0,11.44,1.89v1a43,43,0,0,0-11.44,1.89,27.62,27.62,0,0,0-9.24,4.83,21.27,21.27,0,0,0-6,7.76,21.61,21.61,0,0,0-1.68,10.5l2.1,31.5a10.75,10.75,0,0,1-3.25,9.13,13.07,13.07,0,0,1-9.34,3.47h0a11.55,11.55,0,0,0-11.55,11.55v6.3a11.55,11.55,0,0,0,11.55,11.55h6.3a44.82,44.82,0,0,0,15.85-2.73,33.41,33.41,0,0,0,12.28-7.88A34.14,34.14,0,0,0,206.39,181a38,38,0,0,0,2-16l-2.1-30.45c-.28-4.48,1-8,3.78-10.71a15.25,15.25,0,0,1,10.92-4h14.7a11.55,11.55,0,0,0,11.55-11.54v-6.3a11.55,11.55,0,0,0-11.55-11.55Z"/><path d="M124.8,102.68a31.34,31.34,0,0,1-8.87,1.2q-9.41,0-14.16-4.8T97,85.62V65.18a1.79,1.79,0,0,0-1.79-1.79h-6.7a1.79,1.79,0,0,1-1.79-1.79V55.13a1.79,1.79,0,0,1,1.79-1.79h6.7A1.79,1.79,0,0,0,97,51.55V44.32a1.8,1.8,0,0,1,1.58-1.78l11-1.32a1.79,1.79,0,0,1,2,1.78v8.55a1.79,1.79,0,0,0,1.79,1.79H125.3a1.78,1.78,0,0,1,1.77,2l-.92,6.47a1.78,1.78,0,0,1-1.77,1.54h-11a1.79,1.79,0,0,0-1.79,1.79V85.62c0,2.43.55,4.16,1.64,5.21s2.87,1.57,5.33,1.57a17.34,17.34,0,0,0,7.08-1.47,1.78,1.78,0,0,1,2.3.8L131.19,98a1.81,1.81,0,0,1-.72,2.41A27.67,27.67,0,0,1,124.8,102.68Z"/><path d="M85,156H74a1.79,1.79,0,0,1-1.79-1.79v-65a1.79,1.79,0,0,1,1.6-1.78l11-1.15a1.79,1.79,0,0,1,2,1.78v66.18A1.79,1.79,0,0,1,85,156Zm18.27-26.26,15,23.51a1.79,1.79,0,0,1-1.51,2.75H104.44a1.8,1.8,0,0,1-1.54-.87l-15-24.95a1.8,1.8,0,0,1,.09-2l14.86-20.43a1.77,1.77,0,0,1,1.45-.74h10.79a1.79,1.79,0,0,1,1.44,2.86l-13.24,17.82A1.79,1.79,0,0,0,103.26,129.77Z"/><path d="M160,87.49v65a1.79,1.79,0,0,1-1.79,1.79h-9.56a1.79,1.79,0,0,1-1.78-1.55h0a1.78,1.78,0,0,0-3-1.08,17.59,17.59,0,0,1-3.19,2.29,16,16,0,0,1-7.93,1.91,15.51,15.51,0,0,1-10-3.21,18.92,18.92,0,0,1-6-9.08,43.66,43.66,0,0,1-2-13.9,35.76,35.76,0,0,1,2.37-13.42,21,21,0,0,1,6.78-9.22,16.69,16.69,0,0,1,10.35-3.32,15.36,15.36,0,0,1,8.38,2.31,1.79,1.79,0,0,0,2.74-1.51V86.35a1.79,1.79,0,0,1,2-1.79l11,1.15A1.8,1.8,0,0,1,160,87.49Zm-27.95,30.6q-2.21,3.7-2.21,11.69,0,8.53,2,12a6.14,6.14,0,0,0,5.6,3.43q4.42,0,7.75-5.23a1.79,1.79,0,0,0,.28-1V119.05a1.76,1.76,0,0,0-.44-1.17,12.28,12.28,0,0,0-2.89-2.49,7.45,7.45,0,0,0-3.87-1A6.88,6.88,0,0,0,132.09,118.09Z"/><path d="M48,2.83Q36.61,6.07,31.23,13.28T25.84,32.45c0,1.43.15,3.73.43,6.89L29.5,70.13a25,25,0,0,1,.11,2.8q0,10-7.8,14.22A35.73,35.73,0,0,1,9.93,90.72,11.54,11.54,0,0,0,0,102.14v6a11.54,11.54,0,0,0,9.92,11.42,36,36,0,0,1,11.83,3.56q7.86,4.2,7.86,14.22a25,25,0,0,1-.11,2.8l-3.23,30.58a60.57,60.57,0,0,0-.43,7.32q0,12,5.44,19.06T48,207.43a86.78,86.78,0,0,0,17.23,2.8,11.58,11.58,0,0,0,12.49-11.51v-1.17a11.56,11.56,0,0,0-9.4-11.34,21.42,21.42,0,0,1-5.68-1.83q-5.06-2.58-5.06-9.26a12,12,0,0,1,.11-1.83l3.34-31.76a50.3,50.3,0,0,0,.32-5.39q0-14.31-8.78-21.43l-.3-.23a11.56,11.56,0,0,1,0-18.24c.22-.18.45-.35.66-.53q8.46-6.94,8.46-21.16a56.23,56.23,0,0,0-.32-5.82L57.72,37a12,12,0,0,1-.11-1.83q0-6.67,5.06-9.26a21.42,21.42,0,0,1,5.68-1.83,11.56,11.56,0,0,0,9.4-11.34V11.55A11.58,11.58,0,0,0,65.26,0,88.57,88.57,0,0,0,48,2.83Z"/><path d="M67.27,182.79a5.17,5.17,0,0,1-1.18.53,5,5,0,0,1-1.55.22,3.17,3.17,0,0,1-2.42-.84,3.13,3.13,0,0,1-.79-2.26v-2.93a.85.85,0,0,0-.85-.85h0a.85.85,0,0,1-.85-.84v0a.85.85,0,0,1,.85-.85h0a.85.85,0,0,0,.85-.84v-.21a.84.84,0,0,1,.74-.84l.79-.09a.84.84,0,0,1,.94.84v.3a.85.85,0,0,0,.85.84h.86a.86.86,0,0,1,.84,1h0a.84.84,0,0,1-.83.73h-.86a.85.85,0,0,0-.85.85v2.93a1.16,1.16,0,0,0,.29.88,1.24,1.24,0,0,0,.9.27,2.86,2.86,0,0,0,.8-.11,3,3,0,0,0,.65-.27Z"/><path d="M71.65,172.34v1.82a.84.84,0,0,0,1.14.79,3.2,3.2,0,0,1,1.31-.27,2.19,2.19,0,0,1,1.7.65,2.63,2.63,0,0,1,.58,1.83v5.27a.84.84,0,0,1-.84.84h-.78a.85.85,0,0,1-.85-.84v-4.58a2.35,2.35,0,0,0-.17-1,.65.65,0,0,0-.63-.3,1.23,1.23,0,0,0-.75.27,3.89,3.89,0,0,0-.71.74v4.92a.85.85,0,0,1-.84.84H70a.85.85,0,0,1-.84-.84v-10a.85.85,0,0,1,.76-.84l.78-.07A.84.84,0,0,1,71.65,172.34Z"/><path d="M80.72,179.83a2.16,2.16,0,0,0,.67,1.46,2,2,0,0,0,1.33.45,3.5,3.5,0,0,0,1.11-.19,5.35,5.35,0,0,0,1-.5l.47.63a.84.84,0,0,1-.25,1.24,6.27,6.27,0,0,1-.64.3,5.37,5.37,0,0,1-1.9.32,4.62,4.62,0,0,1-2.39-.57,3.58,3.58,0,0,1-1.45-1.56,5.08,5.08,0,0,1-.49-2.29,5.32,5.32,0,0,1,.47-2.24,3.76,3.76,0,0,1,1.38-1.6,3.9,3.9,0,0,1,2.21-.6,4,4,0,0,1,2.06.51,3.43,3.43,0,0,1,1.36,1.46,5.1,5.1,0,0,1,.48,2.3c0,.14,0,.29,0,.45s0,.31,0,.43Zm1.54-3.49a1.34,1.34,0,0,0-1.07.48,2.65,2.65,0,0,0-.5,1.53h3.06a2.89,2.89,0,0,0-.35-1.46A1.23,1.23,0,0,0,82.26,176.34Z"/><path d="M90.45,172.33v10.1a.85.85,0,0,1-.84.84h-.79a.85.85,0,0,1-.84-.84v-10a.84.84,0,0,1,.76-.84l.78-.08A.84.84,0,0,1,90.45,172.33Zm4.42,4-1.38,1.87a.84.84,0,0,0,0,1L95.27,182a.84.84,0,0,1-.71,1.3h-.8a.85.85,0,0,1-.73-.41l-2.2-3.67a.85.85,0,0,1,0-.93l2.15-3a.84.84,0,0,1,.68-.35h.48A.84.84,0,0,1,94.87,176.3Z"/><path d="M102.46,175.8v4.93a.85.85,0,0,0,.85.85h.42a.85.85,0,0,1,.85.85h0a.85.85,0,0,1-.85.84H98.47a.85.85,0,0,1-.84-.84h0a.85.85,0,0,1,.84-.85h.67a.85.85,0,0,0,.85-.85v-3.24a.84.84,0,0,0-.85-.84h-.59a.85.85,0,0,1-.84-.85h0a.85.85,0,0,1,.84-.85h3.07A.85.85,0,0,1,102.46,175.8ZM101,170.6a1.41,1.41,0,0,1,1,.4,1.3,1.3,0,0,1,.41,1,1.32,1.32,0,0,1-.41,1,1.41,1.41,0,0,1-1,.4,1.46,1.46,0,0,1-1.07-.4,1.36,1.36,0,0,1-.41-1,1.34,1.34,0,0,1,.41-1A1.46,1.46,0,0,1,101,170.6Z"/><path d="M113.11,183.27h-1.26a.83.83,0,0,1-.83-.74l-.62-4.85-.65,4.86a.84.84,0,0,1-.84.73H107.7a.84.84,0,0,1-.84-.72l-1-6.63a.84.84,0,0,1,.84-1h.5a.84.84,0,0,1,.84.78l.48,6,.77-5a.85.85,0,0,1,.83-.72h.62a.85.85,0,0,1,.84.73l.68,5,.5-6a.84.84,0,0,1,.84-.78h.43a.85.85,0,0,1,.84,1l-.94,6.63A.85.85,0,0,1,113.11,183.27Z"/><path d="M121.26,175.8v4.93a.85.85,0,0,0,.85.85h.42a.85.85,0,0,1,.85.85h0a.85.85,0,0,1-.85.84h-5.26a.85.85,0,0,1-.84-.84h0a.85.85,0,0,1,.84-.85h.67a.85.85,0,0,0,.85-.85v-3.24a.84.84,0,0,0-.85-.84h-.59a.85.85,0,0,1-.84-.85h0a.85.85,0,0,1,.84-.85h3.07A.85.85,0,0,1,121.26,175.8Zm-1.49-5.2a1.41,1.41,0,0,1,1,.4,1.3,1.3,0,0,1,.41,1,1.32,1.32,0,0,1-.41,1,1.41,1.41,0,0,1-1,.4,1.46,1.46,0,0,1-1.07-.4,1.36,1.36,0,0,1-.41-1,1.34,1.34,0,0,1,.41-1A1.46,1.46,0,0,1,119.77,170.6Z"/><path d="M131.24,171.49l.79.08a.84.84,0,0,1,.75.84v10a.84.84,0,0,1-.84.84h-1.35l-.12-.91a3.09,3.09,0,0,1-.92.83,2.91,2.91,0,0,1-3.1-.21,3.31,3.31,0,0,1-1-1.55,7.51,7.51,0,0,1-.33-2.34,6,6,0,0,1,.4-2.28,3.53,3.53,0,0,1,1.14-1.56,3,3,0,0,1,2.61-.45.84.84,0,0,0,1.05-.83v-1.64A.84.84,0,0,1,131.24,171.49Zm-2.15,5a1.18,1.18,0,0,0-1,.61,3.84,3.84,0,0,0-.39,2,6,6,0,0,0,.17,1.6,1.51,1.51,0,0,0,.45.79,1,1,0,0,0,.67.23,1.18,1.18,0,0,0,.75-.26,2.35,2.35,0,0,0,.61-.7v-3.59a2.31,2.31,0,0,0-.55-.5A1.24,1.24,0,0,0,129.09,176.49Z"/><path d="M137.12,179.83a2.16,2.16,0,0,0,.67,1.46,2,2,0,0,0,1.33.45,3.5,3.5,0,0,0,1.11-.19,5.35,5.35,0,0,0,1-.5l.47.63a.84.84,0,0,1-.25,1.24,6.27,6.27,0,0,1-.64.3,5.37,5.37,0,0,1-1.9.32,4.62,4.62,0,0,1-2.39-.57,3.58,3.58,0,0,1-1.45-1.56,5.08,5.08,0,0,1-.49-2.29,5.32,5.32,0,0,1,.47-2.24,3.76,3.76,0,0,1,1.38-1.6,3.9,3.9,0,0,1,2.21-.6,4,4,0,0,1,2.06.51,3.43,3.43,0,0,1,1.36,1.46,5.1,5.1,0,0,1,.48,2.3c0,.14,0,.29,0,.45s0,.31,0,.43Zm1.54-3.49a1.34,1.34,0,0,0-1.07.48,2.65,2.65,0,0,0-.5,1.53h3.06a2.78,2.78,0,0,0-.36-1.46A1.21,1.21,0,0,0,138.66,176.34Z"/><path d="M151.86,176.07l-2.21,6.62a.85.85,0,0,1-.81.58h-1.69a.83.83,0,0,1-.8-.57l-2.24-6.63a.85.85,0,0,1,.8-1.12h.84a.86.86,0,0,1,.82.64l.65,2.61a.85.85,0,0,0,1.64,0l.69-2.62a.86.86,0,0,1,.82-.63h.68A.85.85,0,0,1,151.86,176.07Z"/></g></g></svg>